{
	"asset":{
		"generator":"Khronos glTF Blender I/O v4.0.44",
		"version":"2.0"
	},
	"scene":0,
	"scenes":[
		{
			"name":"Scene",
			"nodes":[
				0,
				1
			]
		}
	],
	"nodes":[
		{
			"mesh":0,
			"name":"Cylinder",
			"translation":[
				0,
				0.3100491464138031,
				-1.0484551191329956
			]
		},
		{
			"mesh":1,
			"name":"Cylinder.001",
			"scale":[
				0.39337241649627686,
				0.39337241649627686,
				0.39337241649627686
			],
			"translation":[
				0,
				0.12766729295253754,
				0.5033739805221558
			]
		}
	],
	"materials":[
		{
			"doubleSided":true,
			"name":"Material",
			"pbrMetallicRoughness":{
				"baseColorFactor":[
					0.9217368364334106,
					0.8307334184646606,
					0.7453504800796509,
					1
				],
				"metallicFactor":0,
				"roughnessFactor":0.5
			}
		},
		{
			"doubleSided":true,
			"name":"Material.001",
			"pbrMetallicRoughness":{
				"baseColorFactor":[
					0.9217368364334106,
					0.8307334184646606,
					0.7453504800796509,
					1
				],
				"metallicFactor":0,
				"roughnessFactor":0.5
			}
		}
	],
	"meshes":[
		{
			"name":"Cylinder",
			"primitives":[
				{
					"attributes":{
						"POSITION":0,
						"NORMAL":1,
						"TEXCOORD_0":2
					},
					"indices":3,
					"material":0
				}
			]
		},
		{
			"name":"Cylinder.001",
			"primitives":[
				{
					"attributes":{
						"POSITION":4,
						"NORMAL":5,
						"TEXCOORD_0":6
					},
					"indices":7,
					"material":1
				}
			]
		}
	],
	"accessors":[
		{
			"bufferView":0,
			"componentType":5126,
			"count":1728,
			"max":[
				0.3924565315246582,
				0.2610015869140625,
				0.3932797610759735
			],
			"min":[
				-0.39122965931892395,
				-0.3124602437019348,
				-0.390256404876709
			],
			"type":"VEC3"
		},
		{
			"bufferView":1,
			"componentType":5126,
			"count":1728,
			"type":"VEC3"
		},
		{
			"bufferView":2,
			"componentType":5126,
			"count":1728,
			"type":"VEC2"
		},
		{
			"bufferView":3,
			"componentType":5123,
			"count":2676,
			"type":"SCALAR"
		},
		{
			"bufferView":4,
			"componentType":5126,
			"count":39936,
			"max":[
				0.5565879344940186,
				1.4192487001419067,
				1.7780922651290894
			],
			"min":[
				-0.5449763536453247,
				-0.35434508323669434,
				-0.12581725418567657
			],
			"type":"VEC3"
		},
		{
			"bufferView":5,
			"componentType":5126,
			"count":39936,
			"type":"VEC3"
		},
		{
			"bufferView":6,
			"componentType":5126,
			"count":39936,
			"type":"VEC2"
		},
		{
			"bufferView":7,
			"componentType":5123,
			"count":59904,
			"type":"SCALAR"
		}
	],
	"bufferViews":[
		{
			"buffer":0,
			"byteLength":20736,
			"byteOffset":0,
			"target":34962
		},
		{
			"buffer":0,
			"byteLength":20736,
			"byteOffset":20736,
			"target":34962
		},
		{
			"buffer":0,
			"byteLength":13824,
			"byteOffset":41472,
			"target":34962
		},
		{
			"buffer":0,
			"byteLength":5352,
			"byteOffset":55296,
			"target":34963
		},
		{
			"buffer":0,
			"byteLength":479232,
			"byteOffset":60648,
			"target":34962
		},
		{
			"buffer":0,
			"byteLength":479232,
			"byteOffset":539880,
			"target":34962
		},
		{
			"buffer":0,
			"byteLength":319488,
			"byteOffset":1019112,
			"target":34962
		},
		{
			"buffer":0,
			"byteLength":119808,
			"byteOffset":1338600,
			"target":34963
		}
	],
	"buffers":[
		{
			"byteLength":1458408,
			"uri":"cream.bin"
		}
	]
}
